<?xml version="1.0" encoding="utf-8"?>
<!-- Generator: Adobe Illustrator 28.4.1, SVG Export Plug-In . SVG Version: 6.00 Build 0)  -->
<svg version="1.1" id="Layer_1" xmlns="http://www.w3.org/2000/svg" xmlns:xlink="http://www.w3.org/1999/xlink" x="0px" y="0px"
	 viewBox="0 0 16 16" style="enable-background:new 0 0 16 16;" xml:space="preserve">
<style type="text/css">
	.st0{fill:#ECE7DD;}
	.st1{fill:none;}
	.st2{font-family:'Gambetta-Light';}
	.st3{font-size:1px;}
</style>
<path class="st0" d="M16,1.9v7.5c0,1.4-1.4,2.3-2.6,1.7L6.9,8C5.8,7.5,4.5,8,3.9,9.1c-0.5,1.1,0,2.4,1.1,2.9
	c0.3,0.1,0.6,0.2,0.9,0.2h8.2V16H6v0c-0.8,0-1.7-0.2-2.5-0.6c-3-1.4-4.3-4.9-2.9-7.9c1.4-3,4.9-4.3,7.9-2.9l3.8,1.8V3.7H9l0-3
	l4.9-0.6C15-0.1,16,0.8,16,1.9z"/>
<rect x="14.4" y="12.3" class="st1" width="1.6" height="3.7"/>
<text transform="matrix(1 0 0 1 14.417 15.9502)" class="st0 st2 st3">©</text>
</svg>
